<svg xmlns="http://www.w3.org/2000/svg" width="420" height="260" viewBox="0 0 420 260">
  <defs>
    <linearGradient id="bg" x1="0" y1="0" x2="1" y2="1">
      <stop offset="0" stop-color="#d5c2ff"/>
      <stop offset="0.55" stop-color="#bba5ff"/>
      <stop offset="1" stop-color="#9d86ff"/>
    </linearGradient>
    <linearGradient id="chip" x1="0" y1="0" x2="1" y2="0">
      <stop offset="0" stop-color="#5b21b6" stop-opacity="0.18"/>
      <stop offset="1" stop-color="#5b21b6" stop-opacity="0.06"/>
    </linearGradient>
  </defs>
  <rect x="10" y="10" width="400" height="240" rx="22" fill="url(#bg)"/>
  <rect x="10" y="10" width="400" height="240" rx="22" fill="#ffffff" opacity="0.16"/>
  <circle cx="34" cy="28" r="6" fill="#ffffff" opacity="0.65"/>
  <circle cx="392" cy="28" r="5" fill="#ffffff" opacity="0.55"/>
  <rect x="28" y="34" width="364" height="54" rx="16" fill="#ffffff" opacity="0.40"/>
  <rect x="28" y="34" width="364" height="54" rx="16" fill="url(#chip)"/>
  <g opacity="0.95">
    <rect x="44" y="46" width="88" height="30" rx="12" fill="#ffffff" opacity="0.70"/>
    <path d="M60 68l12-20h20l-12 20z" fill="#5b21b6" opacity="0.22"/>
    <path d="M64 66h16" stroke="#5b21b6" stroke-opacity="0.45" stroke-width="3" stroke-linecap="round"/>
    <rect x="150" y="46" width="112" height="30" rx="12" fill="#ffffff" opacity="0.70"/>
    <rect x="164" y="54" width="84" height="8" rx="4" fill="#5b21b6" opacity="0.18"/>
    <rect x="164" y="66" width="62" height="6" rx="3" fill="#5b21b6" opacity="0.14"/>
    <rect x="280" y="46" width="112" height="30" rx="12" fill="#ffffff" opacity="0.70"/>
    <rect x="294" y="56" width="84" height="10" rx="5" fill="#ffffff" opacity="0.50"/>
    <rect x="294" y="56" width="56" height="10" rx="5" fill="#5b21b6" opacity="0.22"/>
  </g>
  <rect x="28" y="104" width="364" height="132" rx="18" fill="#ffffff" opacity="0.58"/>
  <g opacity="0.90">
    <rect x="44" y="124" width="118" height="92" rx="14" fill="#ffffff" opacity="0.78"/>
    <rect x="58" y="140" width="90" height="10" rx="5" fill="#5b21b6" opacity="0.18"/>
    <rect x="58" y="158" width="64" height="8" rx="4" fill="#5b21b6" opacity="0.14"/>
    <rect x="58" y="174" width="74" height="8" rx="4" fill="#5b21b6" opacity="0.14"/>
    <rect x="58" y="190" width="54" height="8" rx="4" fill="#5b21b6" opacity="0.14"/>
  </g>
  <g opacity="0.90">
    <rect x="176" y="124" width="112" height="92" rx="14" fill="#ffffff" opacity="0.78"/>
    <path d="M204 190h56" stroke="#5b21b6" stroke-opacity="0.20" stroke-width="10" stroke-linecap="round"/>
    <path d="M204 190h34" stroke="#5b21b6" stroke-opacity="0.45" stroke-width="10" stroke-linecap="round"/>
    <circle cx="204" cy="156" r="14" fill="#5b21b6" opacity="0.16"/>
    <path d="M198 156l4 4 8-10" fill="none" stroke="#5b21b6" stroke-opacity="0.55" stroke-width="3" stroke-linecap="round" stroke-linejoin="round"/>
  </g>
  <g opacity="0.90">
    <rect x="302" y="124" width="90" height="92" rx="14" fill="#ffffff" opacity="0.78"/>
    <path d="M318 190l18-20 14 12 24-30" fill="none" stroke="#5b21b6" stroke-opacity="0.50" stroke-width="4" stroke-linecap="round" stroke-linejoin="round"/>
    <circle cx="318" cy="190" r="4" fill="#5b21b6" opacity="0.35"/>
    <circle cx="336" cy="170" r="4" fill="#5b21b6" opacity="0.35"/>
    <circle cx="350" cy="182" r="4" fill="#5b21b6" opacity="0.35"/>
    <circle cx="374" cy="152" r="4" fill="#5b21b6" opacity="0.35"/>
  </g>
</svg>
