<svg xmlns="http://www.w3.org/2000/svg" width="420" height="260" viewBox="0 0 420 260">
  <defs>
    <linearGradient id="bg" x1="0" y1="0" x2="1" y2="1">
      <stop offset="0" stop-color="#bff7f2"/>
      <stop offset="0.55" stop-color="#9ff0e8"/>
      <stop offset="1" stop-color="#79e6db"/>
    </linearGradient>
    <linearGradient id="chip" x1="0" y1="0" x2="1" y2="0">
      <stop offset="0" stop-color="#0f766e" stop-opacity="0.18"/>
      <stop offset="1" stop-color="#0f766e" stop-opacity="0.06"/>
    </linearGradient>
  </defs>
  <rect x="10" y="10" width="400" height="240" rx="22" fill="url(#bg)"/>
  <rect x="10" y="10" width="400" height="240" rx="22" fill="#ffffff" opacity="0.16"/>
  <circle cx="34" cy="28" r="6" fill="#ffffff" opacity="0.65"/>
  <circle cx="392" cy="28" r="5" fill="#ffffff" opacity="0.55"/>
  <rect x="28" y="34" width="364" height="54" rx="16" fill="#ffffff" opacity="0.40"/>
  <rect x="28" y="34" width="364" height="54" rx="16" fill="url(#chip)"/>
  <g opacity="0.95">
    <circle cx="92" cy="61" r="16" fill="#ffffff" opacity="0.78"/>
    <circle cx="92" cy="56" r="6" fill="#0f766e" opacity="0.20"/>
    <path d="M78 70c6-8 22-8 28 0" fill="none" stroke="#0f766e" stroke-opacity="0.40" stroke-width="3" stroke-linecap="round"/>
    <circle cx="210" cy="61" r="16" fill="#ffffff" opacity="0.78"/>
    <circle cx="210" cy="56" r="6" fill="#0f766e" opacity="0.24"/>
    <path d="M196 70c6-8 22-8 28 0" fill="none" stroke="#0f766e" stroke-opacity="0.45" stroke-width="3" stroke-linecap="round"/>
    <circle cx="328" cy="61" r="16" fill="#ffffff" opacity="0.78"/>
    <circle cx="328" cy="56" r="6" fill="#0f766e" opacity="0.20"/>
    <path d="M314 70c6-8 22-8 28 0" fill="none" stroke="#0f766e" stroke-opacity="0.40" stroke-width="3" stroke-linecap="round"/>
  </g>
  <rect x="28" y="104" width="364" height="132" rx="18" fill="#ffffff" opacity="0.58"/>
  <g opacity="0.90">
    <rect x="44" y="124" width="156" height="92" rx="14" fill="#ffffff" opacity="0.78"/>
    <circle cx="84" cy="158" r="18" fill="#0f766e" opacity="0.14"/>
    <circle cx="84" cy="152" r="7" fill="#0f766e" opacity="0.22"/>
    <path d="M70 172c7-10 21-10 28 0" fill="none" stroke="#0f766e" stroke-opacity="0.45" stroke-width="3" stroke-linecap="round"/>
    <circle cx="140" cy="158" r="14" fill="#0f766e" opacity="0.10"/>
    <circle cx="140" cy="154" r="6" fill="#0f766e" opacity="0.18"/>
    <path d="M128 170c6-8 18-8 24 0" fill="none" stroke="#0f766e" stroke-opacity="0.35" stroke-width="3" stroke-linecap="round"/>
    <rect x="58" y="194" width="92" height="8" rx="4" fill="#0f766e" opacity="0.18"/>
  </g>
  <g opacity="0.90">
    <rect x="214" y="124" width="92" height="92" rx="14" fill="#ffffff" opacity="0.78"/>
    <circle cx="260" cy="154" r="18" fill="#0f766e" opacity="0.14"/>
    <path d="M260 138v-6" stroke="#0f766e" stroke-opacity="0.45" stroke-width="4" stroke-linecap="round"/>
    <path d="M260 176v-6" stroke="#0f766e" stroke-opacity="0.45" stroke-width="4" stroke-linecap="round"/>
    <path d="M244 154h-6" stroke="#0f766e" stroke-opacity="0.45" stroke-width="4" stroke-linecap="round"/>
    <path d="M282 154h-6" stroke="#0f766e" stroke-opacity="0.45" stroke-width="4" stroke-linecap="round"/>
    <path d="M249 143l-4-4" stroke="#0f766e" stroke-opacity="0.40" stroke-width="4" stroke-linecap="round"/>
    <path d="M275 169l-4-4" stroke="#0f766e" stroke-opacity="0.40" stroke-width="4" stroke-linecap="round"/>
    <path d="M271 139l4-4" stroke="#0f766e" stroke-opacity="0.40" stroke-width="4" stroke-linecap="round"/>
    <path d="M245 169l4-4" stroke="#0f766e" stroke-opacity="0.40" stroke-width="4" stroke-linecap="round"/>
    <circle cx="260" cy="154" r="7" fill="#0f766e" opacity="0.22"/>
  </g>
  <g opacity="0.90">
    <rect x="320" y="124" width="72" height="92" rx="14" fill="#ffffff" opacity="0.78"/>
    <rect x="334" y="140" width="44" height="10" rx="5" fill="#0f766e" opacity="0.18"/>
    <rect x="334" y="158" width="34" height="8" rx="4" fill="#0f766e" opacity="0.14"/>
    <rect x="334" y="174" width="38" height="8" rx="4" fill="#0f766e" opacity="0.14"/>
    <rect x="334" y="190" width="26" height="8" rx="4" fill="#0f766e" opacity="0.14"/>
  </g>
</svg>
