<svg xmlns="http://www.w3.org/2000/svg" width="720" height="420" viewBox="0 0 720 420">
  <defs>
    <linearGradient id="bg" x1="0" y1="0" x2="1" y2="1">
      <stop offset="0" stop-color="#0d6efd" stop-opacity="0.18"/>
      <stop offset="1" stop-color="#20c997" stop-opacity="0.18"/>
    </linearGradient>
    <linearGradient id="card" x1="0" y1="0" x2="1" y2="1">
      <stop offset="0" stop-color="#ffffff"/>
      <stop offset="1" stop-color="#f8f9fa"/>
    </linearGradient>
    <filter id="shadow" x="-20%" y="-20%" width="140%" height="140%">
      <feDropShadow dx="0" dy="10" stdDeviation="14" flood-color="#0b1f3a" flood-opacity="0.18"/>
    </filter>
  </defs>
  <rect x="0" y="0" width="720" height="420" rx="26" fill="url(#bg)"/>
  <g filter="url(#shadow)">
    <rect x="54" y="56" width="612" height="308" rx="22" fill="url(#card)"/>
  </g>
  <rect x="92" y="96" width="264" height="18" rx="9" fill="#0d6efd" fill-opacity="0.25"/>
  <rect x="92" y="126" width="210" height="12" rx="6" fill="#6c757d" fill-opacity="0.22"/>
  <g>
    <rect x="92" y="170" width="250" height="128" rx="14" fill="#0d6efd" fill-opacity="0.09"/>
    <rect x="108" y="188" width="124" height="12" rx="6" fill="#0d6efd" fill-opacity="0.35"/>
    <rect x="108" y="212" width="198" height="10" rx="5" fill="#0d6efd" fill-opacity="0.22"/>
    <rect x="108" y="232" width="168" height="10" rx="5" fill="#0d6efd" fill-opacity="0.22"/>
    <rect x="108" y="252" width="188" height="10" rx="5" fill="#0d6efd" fill-opacity="0.22"/>
    <rect x="108" y="272" width="140" height="10" rx="5" fill="#0d6efd" fill-opacity="0.22"/>
  </g>
  <g>
    <rect x="372" y="170" width="256" height="62" rx="14" fill="#20c997" fill-opacity="0.10"/>
    <rect x="388" y="188" width="134" height="12" rx="6" fill="#20c997" fill-opacity="0.35"/>
    <rect x="388" y="210" width="208" height="10" rx="5" fill="#20c997" fill-opacity="0.24"/>
  </g>
  <g>
    <rect x="372" y="242" width="256" height="122" rx="14" fill="#6610f2" fill-opacity="0.08"/>
    <rect x="388" y="262" width="168" height="12" rx="6" fill="#6610f2" fill-opacity="0.30"/>
    <rect x="388" y="286" width="220" height="10" rx="5" fill="#6610f2" fill-opacity="0.20"/>
    <rect x="388" y="306" width="196" height="10" rx="5" fill="#6610f2" fill-opacity="0.20"/>
    <rect x="388" y="326" width="212" height="10" rx="5" fill="#6610f2" fill-opacity="0.20"/>
    <rect x="388" y="346" width="160" height="10" rx="5" fill="#6610f2" fill-opacity="0.20"/>
  </g>
  <circle cx="600" cy="106" r="18" fill="#0d6efd" fill-opacity="0.20"/>
  <circle cx="642" cy="106" r="18" fill="#20c997" fill-opacity="0.20"/>
  <circle cx="684" cy="106" r="18" fill="#6610f2" fill-opacity="0.18"/>
</svg>
