<svg xmlns="http://www.w3.org/2000/svg" width="420" height="260" viewBox="0 0 420 260">
  <defs>
    <linearGradient id="bg" x1="0" y1="0" x2="1" y2="1">
      <stop offset="0" stop-color="#baf1d1"/>
      <stop offset="0.55" stop-color="#9de7c2"/>
      <stop offset="1" stop-color="#7adcb2"/>
    </linearGradient>
    <linearGradient id="chip" x1="0" y1="0" x2="1" y2="0">
      <stop offset="0" stop-color="#0f766e" stop-opacity="0.18"/>
      <stop offset="1" stop-color="#0f766e" stop-opacity="0.06"/>
    </linearGradient>
  </defs>
  <rect x="10" y="10" width="400" height="240" rx="22" fill="url(#bg)"/>
  <rect x="10" y="10" width="400" height="240" rx="22" fill="#ffffff" opacity="0.16"/>
  <circle cx="34" cy="28" r="6" fill="#ffffff" opacity="0.65"/>
  <circle cx="392" cy="28" r="5" fill="#ffffff" opacity="0.55"/>
  <rect x="28" y="34" width="364" height="54" rx="16" fill="#ffffff" opacity="0.40"/>
  <rect x="28" y="34" width="364" height="54" rx="16" fill="url(#chip)"/>
  <g opacity="0.95">
    <circle cx="86" cy="61" r="18" fill="#ffffff" opacity="0.78"/>
    <circle cx="86" cy="61" r="10" fill="none" stroke="#0f766e" stroke-opacity="0.45" stroke-width="3"/>
    <path d="M86 55v8l6 4" stroke="#0f766e" stroke-opacity="0.55" stroke-width="3" stroke-linecap="round" stroke-linejoin="round" fill="none"/>
    <rect x="180" y="46" width="86" height="30" rx="12" fill="#ffffff" opacity="0.70"/>
    <rect x="190" y="52" width="66" height="6" rx="3" fill="#0f766e" opacity="0.22"/>
    <rect x="190" y="62" width="52" height="6" rx="3" fill="#0f766e" opacity="0.18"/>
    <rect x="300" y="46" width="92" height="30" rx="12" fill="#ffffff" opacity="0.70"/>
    <path d="M312 66l18-14 14 10 20-12" fill="none" stroke="#0f766e" stroke-opacity="0.55" stroke-width="3" stroke-linecap="round" stroke-linejoin="round"/>
    <circle cx="312" cy="66" r="4" fill="#0f766e" opacity="0.35"/>
    <circle cx="330" cy="52" r="4" fill="#0f766e" opacity="0.35"/>
    <circle cx="344" cy="62" r="4" fill="#0f766e" opacity="0.35"/>
    <circle cx="364" cy="50" r="4" fill="#0f766e" opacity="0.35"/>
  </g>
  <rect x="28" y="104" width="364" height="132" rx="18" fill="#ffffff" opacity="0.58"/>
  <g opacity="0.90">
    <rect x="44" y="124" width="140" height="92" rx="14" fill="#ffffff" opacity="0.78"/>
    <rect x="58" y="138" width="112" height="12" rx="6" fill="#0f766e" opacity="0.18"/>
    <g opacity="0.85">
      <rect x="58" y="160" width="18" height="18" rx="6" fill="#0f766e" opacity="0.22"/>
      <path d="M63 169l3 3 7-7" fill="none" stroke="#0f766e" stroke-opacity="0.55" stroke-width="3" stroke-linecap="round" stroke-linejoin="round"/>
      <rect x="82" y="160" width="18" height="18" rx="6" fill="#0f766e" opacity="0.16"/>
      <path d="M87 169l3 3 7-7" fill="none" stroke="#0f766e" stroke-opacity="0.45" stroke-width="3" stroke-linecap="round" stroke-linejoin="round"/>
      <rect x="106" y="160" width="18" height="18" rx="6" fill="#0f766e" opacity="0.12"/>
      <rect x="130" y="160" width="18" height="18" rx="6" fill="#0f766e" opacity="0.12"/>
    </g>
    <rect x="58" y="190" width="84" height="8" rx="4" fill="#0f766e" opacity="0.18"/>
  </g>
  <g opacity="0.90">
    <rect x="200" y="124" width="92" height="92" rx="14" fill="#ffffff" opacity="0.78"/>
    <circle cx="246" cy="158" r="18" fill="#0f766e" opacity="0.14"/>
    <path d="M246 146v14l9 6" stroke="#0f766e" stroke-opacity="0.55" stroke-width="3" stroke-linecap="round" stroke-linejoin="round" fill="none"/>
    <rect x="214" y="190" width="64" height="8" rx="4" fill="#0f766e" opacity="0.18"/>
  </g>
  <g opacity="0.90">
    <rect x="308" y="124" width="84" height="92" rx="14" fill="#ffffff" opacity="0.78"/>
    <path d="M324 196v-30" stroke="#0f766e" stroke-opacity="0.35" stroke-width="6" stroke-linecap="round"/>
    <path d="M350 196v-46" stroke="#0f766e" stroke-opacity="0.50" stroke-width="6" stroke-linecap="round"/>
    <path d="M374 196v-22" stroke="#0f766e" stroke-opacity="0.28" stroke-width="6" stroke-linecap="round"/>
  </g>
</svg>
