<svg xmlns="http://www.w3.org/2000/svg" width="420" height="260" viewBox="0 0 420 260">
  <defs>
    <linearGradient id="bg" x1="0" y1="0" x2="1" y2="1">
      <stop offset="0" stop-color="#bfe3ff"/>
      <stop offset="0.55" stop-color="#a6d0ff"/>
      <stop offset="1" stop-color="#8bbcff"/>
    </linearGradient>
    <linearGradient id="chip" x1="0" y1="0" x2="1" y2="0">
      <stop offset="0" stop-color="#2b6cb0" stop-opacity="0.16"/>
      <stop offset="1" stop-color="#2b6cb0" stop-opacity="0.06"/>
    </linearGradient>
  </defs>
  <rect x="10" y="10" width="400" height="240" rx="22" fill="url(#bg)"/>
  <rect x="10" y="10" width="400" height="240" rx="22" fill="#ffffff" opacity="0.20"/>
  <circle cx="34" cy="28" r="6" fill="#ffffff" opacity="0.65"/>
  <circle cx="392" cy="28" r="5" fill="#ffffff" opacity="0.55"/>
  <circle cx="34" cy="232" r="5" fill="#ffffff" opacity="0.45"/>
  <rect x="28" y="34" width="364" height="54" rx="16" fill="#ffffff" opacity="0.40"/>
  <rect x="28" y="34" width="364" height="54" rx="16" fill="url(#chip)"/>
  <g opacity="0.95">
    <circle cx="74" cy="61" r="18" fill="#ffffff" opacity="0.78"/>
    <path d="M64 62c6-10 18-10 24 0" fill="none" stroke="#2b6cb0" stroke-opacity="0.55" stroke-width="3" stroke-linecap="round"/>
    <path d="M68 58c4 4 12 4 16 0" fill="none" stroke="#2b6cb0" stroke-opacity="0.40" stroke-width="3" stroke-linecap="round"/>
    <circle cx="210" cy="61" r="18" fill="#ffffff" opacity="0.78"/>
    <path d="M203 69h14" stroke="#2b6cb0" stroke-opacity="0.55" stroke-width="3" stroke-linecap="round"/>
    <path d="M204 56h12" stroke="#2b6cb0" stroke-opacity="0.40" stroke-width="3" stroke-linecap="round"/>
    <path d="M205 60h10" stroke="#2b6cb0" stroke-opacity="0.40" stroke-width="3" stroke-linecap="round"/>
    <circle cx="346" cy="61" r="18" fill="#ffffff" opacity="0.78"/>
    <path d="M346 49v24" stroke="#2b6cb0" stroke-opacity="0.40" stroke-width="3" stroke-linecap="round"/>
    <path d="M334 61h24" stroke="#2b6cb0" stroke-opacity="0.40" stroke-width="3" stroke-linecap="round"/>
    <path d="M337 54l18 14" stroke="#2b6cb0" stroke-opacity="0.55" stroke-width="3" stroke-linecap="round"/>
  </g>
  <rect x="28" y="104" width="248" height="132" rx="18" fill="#ffffff" opacity="0.65"/>
  <rect x="294" y="104" width="98" height="132" rx="18" fill="#ffffff" opacity="0.55"/>
  <g opacity="0.85">
    <rect x="52" y="126" width="72" height="92" rx="14" fill="#ffffff" opacity="0.78"/>
    <path d="M60 144h56" stroke="#2b6cb0" stroke-opacity="0.45" stroke-width="3" stroke-linecap="round"/>
    <path d="M60 160h44" stroke="#2b6cb0" stroke-opacity="0.35" stroke-width="3" stroke-linecap="round"/>
    <path d="M60 176h50" stroke="#2b6cb0" stroke-opacity="0.35" stroke-width="3" stroke-linecap="round"/>
    <path d="M60 192h40" stroke="#2b6cb0" stroke-opacity="0.35" stroke-width="3" stroke-linecap="round"/>
  </g>
  <g opacity="0.85">
    <rect x="144" y="126" width="108" height="92" rx="14" fill="#ffffff" opacity="0.78"/>
    <path d="M156 150c10-16 26-16 36 0s26 16 36 0" fill="none" stroke="#2b6cb0" stroke-opacity="0.50" stroke-width="4" stroke-linecap="round"/>
    <circle cx="170" cy="186" r="6" fill="#2b6cb0" opacity="0.35"/>
    <circle cx="198" cy="186" r="6" fill="#2b6cb0" opacity="0.35"/>
    <circle cx="226" cy="186" r="6" fill="#2b6cb0" opacity="0.35"/>
  </g>
  <g opacity="0.85">
    <rect x="304" y="126" width="78" height="92" rx="14" fill="#ffffff" opacity="0.78"/>
    <path d="M318 188v-30" stroke="#2b6cb0" stroke-opacity="0.40" stroke-width="6" stroke-linecap="round"/>
    <path d="M342 188v-46" stroke="#2b6cb0" stroke-opacity="0.50" stroke-width="6" stroke-linecap="round"/>
    <path d="M366 188v-22" stroke="#2b6cb0" stroke-opacity="0.35" stroke-width="6" stroke-linecap="round"/>
  </g>
</svg>
