<svg xmlns="http://www.w3.org/2000/svg" width="800" height="800" viewBox="0 0 800 800">
  <defs>
    <radialGradient id="haze" cx="30%" cy="25%" r="80%">
      <stop offset="0" stop-color="#21e6ff" stop-opacity="0.12"/>
      <stop offset="0.45" stop-color="#8b5cf6" stop-opacity="0.06"/>
      <stop offset="1" stop-color="#000000" stop-opacity="0"/>
    </radialGradient>
    <linearGradient id="vein1" x1="0" y1="0" x2="1" y2="1">
      <stop offset="0" stop-color="#21e6ff" stop-opacity="0"/>
      <stop offset="0.5" stop-color="#21e6ff" stop-opacity="0.22"/>
      <stop offset="1" stop-color="#21e6ff" stop-opacity="0"/>
    </linearGradient>
    <linearGradient id="vein2" x1="1" y1="0" x2="0" y2="1">
      <stop offset="0" stop-color="#8b5cf6" stop-opacity="0"/>
      <stop offset="0.5" stop-color="#8b5cf6" stop-opacity="0.18"/>
      <stop offset="1" stop-color="#8b5cf6" stop-opacity="0"/>
    </linearGradient>
    <filter id="blur" x="-20%" y="-20%" width="140%" height="140%">
      <feGaussianBlur stdDeviation="0.9"/>
    </filter>
  </defs>
  <rect width="800" height="800" fill="url(#haze)"/>
  <g filter="url(#blur)">
    <path d="M-40 120 C 80 140, 160 70, 260 120 C 360 170, 460 120, 560 170 C 660 220, 740 190, 860 230" stroke="url(#vein1)" stroke-width="3" fill="none"/>
    <path d="M-60 360 C 70 300, 140 420, 260 360 C 380 300, 460 440, 600 380 C 740 320, 820 460, 900 420" stroke="url(#vein2)" stroke-width="2.6" fill="none"/>
    <path d="M-80 600 C 60 560, 160 650, 300 610 C 440 570, 520 700, 650 650 C 780 600, 880 700, 960 670" stroke="url(#vein1)" stroke-width="2.4" fill="none"/>
    <path d="M220 -40 C 250 90, 140 170, 220 300 C 300 430, 240 520, 330 660 C 420 800, 360 860, 340 920" stroke="url(#vein2)" stroke-width="2.2" fill="none"/>
    <path d="M560 -60 C 520 120, 620 190, 560 340 C 500 490, 620 560, 560 720 C 520 830, 590 900, 620 980" stroke="url(#vein1)" stroke-width="2.0" fill="none"/>
  </g>
</svg>
